<svg id="Layer_1" data-name="Layer 1" xmlns="http://www.w3.org/2000/svg" viewBox="0 0 599.25 553.35"><defs><style>.cls-1{fill:#ffc536;}.cls-2{fill:none;}.cls-3{fill:#ffc817;}.cls-4{fill:#fff;}</style></defs><path class="cls-1" d="M143.74,76.21a260.61,260.61,0,0,0-82.57,78.85,243.73,243.73,0,0,0-25.75,50.6c-.8,2.23-1.68,4.41-2.42,6.66L30.77,219l-2,6.78c-.7,2.24-1.19,4.55-1.84,6.81a257.08,257.08,0,0,0-5.64,27.57,253,253,0,0,0,7.86,110.68A255.86,255.86,0,0,0,82.43,467a293.32,293.32,0,0,0,40.34,37.63,257.24,257.24,0,0,0,47.13,29,222.51,222.51,0,0,0,52.83,17.19A290.7,290.7,0,0,0,278.24,556a258.14,258.14,0,0,0,158-53.6A267.17,267.17,0,0,0,478,462.74a256.89,256.89,0,0,1-38.25,43.85A264.79,264.79,0,0,1,392.11,541a259.07,259.07,0,0,1-54.57,23,267.5,267.5,0,0,1-58.76,10.14,241.69,241.69,0,0,1-59.76-4c-2.47-.38-4.91-1-7.36-1.52l-7.33-1.65c-2.45-.53-4.84-1.29-7.27-1.92l-7.25-2-7.15-2.35c-2.37-.82-4.8-1.45-7.13-2.39l-7.05-2.64L165,554.29l-3.47-1.47a272.9,272.9,0,0,1-52.92-29,239.17,239.17,0,0,1-44.45-41c-1.61-1.94-3.31-3.82-4.86-5.81l-4.63-6-2.31-3c-.77-1-1.46-2.07-2.19-3.09l-4.33-6.21c-1.49-2-2.77-4.22-4.12-6.35l-4-6.41c-2.49-4.39-5-8.75-7.33-13.23A267.36,267.36,0,0,1,5.93,257.48a273,273,0,0,1,7.59-28.81c1.5-4.73,3.29-9.36,5-14l2.85-6.86c.94-2.28,2-4.51,3-6.77A277.18,277.18,0,0,1,38.38,175,270.06,270.06,0,0,1,55,150.68,264.42,264.42,0,0,1,143.74,76.21Z" transform="translate(-0.75 -21.15)"/><line class="cls-2" x1="477.24" y1="441.59" x2="142.99" y2="55.06"/><path class="cls-3" d="M469.85,422.64s-68.64,95-189.31,95C158,517.67,58.6,418.29,58.6,295.7c0-73.24,32.07-123.29,81.06-170.49C219.87,47.91,593.92,21.15,593.92,21.15S207.81,171.55,469.85,422.64Z" transform="translate(-0.75 -21.15)"/><path class="cls-3" d="M529.87,209.37C497.34,314.66,531.69,348,502.33,348,456.8,348,419.9,301.89,419.9,245c0-34,11.61-57.66,30.1-79.18C477.11,134.23,600,54.36,600,54.36S549.55,145.66,529.87,209.37Z" transform="translate(-0.75 -21.15)"/><path class="cls-4" d="M292.53,329l124.74,96.71s-34.38,48.62-109.19,59.48Z" transform="translate(-0.75 -21.15)"/><path class="cls-4" d="M252.39,284,98.25,250s10.25-58.66,73.2-100.5Z" transform="translate(-0.75 -21.15)"/><path class="cls-4" d="M283.49,271.89l-74.82-139S259.8,102.4,332.59,122.8Z" transform="translate(-0.75 -21.15)"/><path class="cls-4" d="M251.12,306.36,129.63,407.13S89.64,363,95.28,287.64Z" transform="translate(-0.75 -21.15)"/><path class="cls-4" d="M265.86,323.38l-111.19,112s40.38,43.76,116,44.86Z" transform="translate(-0.75 -21.15)"/></svg>