<svg id="Layer_1" data-name="Layer 1" xmlns="http://www.w3.org/2000/svg" viewBox="0 0 525.19 487.73"><defs><style>.cls-1{fill:#fce500;}.cls-2{fill:none;}</style></defs><path class="cls-1" d="M164.94,113.37a222.77,222.77,0,0,0-95.48,114.1c-.7,2-1.48,3.89-2.13,5.86l-2,5.92-1.77,6c-.61,2-1.05,4-1.61,6a227.55,227.55,0,0,0-5,24.3,223,223,0,0,0,6.93,97.55,225.39,225.39,0,0,0,47,84.76A258.48,258.48,0,0,0,146.46,491,226.71,226.71,0,0,0,188,516.59a196.06,196.06,0,0,0,46.56,15.15,256.2,256.2,0,0,0,48.93,4.53A227.62,227.62,0,0,0,422.76,489a236.18,236.18,0,0,0,36.8-35,227.09,227.09,0,0,1-33.72,38.65,232.92,232.92,0,0,1-42,30.28,227.56,227.56,0,0,1-48.1,20.25,235.41,235.41,0,0,1-51.8,8.94,212.67,212.67,0,0,1-52.67-3.5c-2.18-.34-4.33-.85-6.48-1.35l-6.46-1.45c-2.16-.47-4.27-1.13-6.41-1.69l-6.39-1.77-6.3-2.07c-2.09-.72-4.24-1.28-6.29-2.1l-6.22-2.33-3.11-1.17-3-1.29A241,241,0,0,1,133.93,508,210.6,210.6,0,0,1,94.76,471.8c-1.43-1.71-2.92-3.36-4.29-5.12l-4.08-5.28-2-2.64c-.67-.89-1.28-1.82-1.93-2.73l-3.82-5.47c-1.31-1.8-2.43-3.72-3.63-5.59l-3.55-5.65C69.23,435.45,67,431.6,65,427.65A235.53,235.53,0,0,1,43.47,273.14a242.39,242.39,0,0,1,6.69-25.39c1.32-4.17,2.9-8.25,4.44-12.33l2.51-6c.83-2,1.78-4,2.67-6a247,247,0,0,1,12.29-23A240.2,240.2,0,0,1,86.75,179,233,233,0,0,1,164.94,113.37Z" transform="translate(-38.9 -64.84)"/><line class="cls-2" x1="417.65" y1="389.22" x2="123.04" y2="48.53"/><path class="cls-1" d="M502.28,230.73C473.61,323.54,503.89,353,478,353c-40.14,0-72.66-40.68-72.66-90.87,0-30,10.23-50.82,26.53-69.79,23.9-27.8,132.22-98.2,132.22-98.2S519.63,174.58,502.28,230.73Z" transform="translate(-38.9 -64.84)"/><path class="cls-1" d="M558.74,64.84S229,88.43,158.34,156.55C115.17,198.16,86.9,242.28,86.9,306.83c0,108.06,87.56,195.65,195.62,195.65,106.36,0,166.86-83.76,166.86-83.76C218.41,197.4,558.74,64.84,558.74,64.84ZM186.37,178,257.7,296.52l-135.86-30S130.88,214.86,186.37,178ZM119.22,299.73l137.37,16.5L149.5,405.05S114.25,366.17,119.22,299.73ZM171.58,430l98-98.74,4.2,138.28C207.16,468.54,171.58,430,171.58,430Zm47.59-266.63s45.07-26.89,109.22-8.91L285.12,285.84ZM306.8,473.88,293.08,336.21l110,85.25S372.73,464.31,306.8,473.88Z" transform="translate(-38.9 -64.84)"/></svg>